<mxfile host="Electron" agent="Mozilla/5.0 (Windows NT 10.0; Win64; x64) AppleWebKit/537.36 (KHTML, like Gecko) draw.io/24.7.8 Chrome/128.0.6613.36 Electron/32.0.1 Safari/537.36" version="24.7.8">
  <diagram name="Page-1" id="q-hze4bw7O7knUZ77u1c">
    <mxGraphModel dx="724" dy="1255" grid="1" gridSize="10" guides="1" tooltips="1" connect="1" arrows="1" fold="1" page="1" pageScale="1" pageWidth="1169" pageHeight="827" math="0" shadow="0">
      <root>
        <mxCell id="0" />
        <mxCell id="1" parent="0" />
        <mxCell id="IRrSJivMdV4Zv0pZRBtk-26" value="" style="whiteSpace=wrap;html=1;fillColor=none;" parent="1" vertex="1">
          <mxGeometry x="430" y="340" width="450" height="230" as="geometry" />
        </mxCell>
        <mxCell id="IRrSJivMdV4Zv0pZRBtk-31" value="" style="whiteSpace=wrap;html=1;fillColor=none;rounded=0;arcSize=11;" parent="1" vertex="1">
          <mxGeometry x="40" y="100" width="840" height="230" as="geometry" />
        </mxCell>
        <mxCell id="IRrSJivMdV4Zv0pZRBtk-19" value="" style="whiteSpace=wrap;html=1;fillColor=none;" parent="1" vertex="1">
          <mxGeometry x="40" y="340" width="370" height="230" as="geometry" />
        </mxCell>
        <mxCell id="IRrSJivMdV4Zv0pZRBtk-3" value="Informatics" style="whiteSpace=wrap;html=1;spacing=0;spacingTop=-3;align=center;verticalAlign=top;fillColor=#fff2cc;rounded=1;arcSize=8;strokeColor=#d6b656;" parent="1" vertex="1">
          <mxGeometry x="50" y="350" width="170" height="190" as="geometry" />
        </mxCell>
        <mxCell id="TPrtVOy8q0tYaUPQvS7f-2" value="&lt;div style=&quot;text-align: center;&quot;&gt;&lt;font style=&quot;font-size: 11px;&quot;&gt;Outcomes&lt;/font&gt;&lt;/div&gt;&lt;font style=&quot;font-size: 11px;&quot;&gt;1. Create Reliable Reference Knowledge Base Specific to Indian Healthcare Ecosystem&lt;/font&gt;&lt;div style=&quot;font-size: 11px;&quot;&gt;&lt;font style=&quot;font-size: 11px;&quot;&gt;2&lt;/font&gt;&lt;span style=&quot;background-color: initial;&quot;&gt;.&lt;/span&gt;&lt;span style=&quot;background-color: initial;&quot;&gt;&amp;nbsp;Create Digital Health Application for Physician and Patient Centric&lt;/span&gt;&lt;/div&gt;" style="whiteSpace=wrap;html=1;align=left;spacing=0;spacingTop=-2;spacingLeft=3;" parent="1" vertex="1">
          <mxGeometry x="240" y="45" width="440" height="50" as="geometry" />
        </mxCell>
        <mxCell id="TPrtVOy8q0tYaUPQvS7f-3" value="&lt;span style=&quot;text-wrap: nowrap;&quot;&gt;D&lt;/span&gt;&lt;sup style=&quot;text-wrap: nowrap;&quot;&gt;2&lt;/sup&gt;&lt;span style=&quot;text-wrap: nowrap;&quot;&gt;CODE:&amp;nbsp;&lt;/span&gt;&lt;b style=&quot;text-wrap: nowrap;&quot;&gt;&lt;u&gt;D&lt;/u&gt;&lt;/b&gt;&lt;span style=&quot;text-wrap: nowrap;&quot;&gt;esign &amp;amp;&amp;nbsp;&lt;/span&gt;&lt;b style=&quot;text-wrap: nowrap;&quot;&gt;&lt;u&gt;D&lt;/u&gt;&lt;/b&gt;&lt;span style=&quot;text-wrap: nowrap;&quot;&gt;evelopment of Reliable Physician-and-Patient-&lt;/span&gt;&lt;u style=&quot;text-wrap: nowrap;&quot;&gt;&lt;b&gt;C&lt;/b&gt;&lt;/u&gt;&lt;span style=&quot;text-wrap: nowrap;&quot;&gt;entric&amp;nbsp;&lt;/span&gt;&lt;div style=&quot;text-wrap: nowrap;&quot;&gt;Digital Health T&lt;b&gt;&lt;u&gt;o&lt;/u&gt;&lt;/b&gt;ols and&amp;nbsp;&lt;u&gt;&lt;b&gt;D&lt;/b&gt;&lt;/u&gt;atabases for Indian Healthcare&amp;nbsp;&lt;b&gt;&lt;u&gt;E&lt;/u&gt;&lt;/b&gt;cosystem&lt;/div&gt;" style="whiteSpace=wrap;html=1;spacing=0;spacingTop=-2;" parent="1" vertex="1">
          <mxGeometry x="240" y="10" width="440" height="35" as="geometry" />
        </mxCell>
        <mxCell id="TPrtVOy8q0tYaUPQvS7f-10" value="" style="edgeStyle=elbowEdgeStyle;rounded=1;orthogonalLoop=1;jettySize=auto;html=1;curved=0;exitX=1;exitY=0.5;exitDx=0;exitDy=0;" parent="1" source="TPrtVOy8q0tYaUPQvS7f-14" target="TPrtVOy8q0tYaUPQvS7f-9" edge="1">
          <mxGeometry relative="1" as="geometry">
            <mxPoint x="470" y="160" as="sourcePoint" />
          </mxGeometry>
        </mxCell>
        <mxCell id="TPrtVOy8q0tYaUPQvS7f-12" style="edgeStyle=elbowEdgeStyle;rounded=1;orthogonalLoop=1;jettySize=auto;html=1;exitX=1;exitY=0.5;exitDx=0;exitDy=0;entryX=0;entryY=0.5;entryDx=0;entryDy=0;" parent="1" source="TPrtVOy8q0tYaUPQvS7f-14" target="TPrtVOy8q0tYaUPQvS7f-11" edge="1">
          <mxGeometry relative="1" as="geometry">
            <mxPoint x="470" y="160" as="sourcePoint" />
          </mxGeometry>
        </mxCell>
        <mxCell id="TPrtVOy8q0tYaUPQvS7f-9" value="&lt;div&gt;&lt;span style=&quot;background-color: initial;&quot;&gt;MyHealthCare:&lt;/span&gt;&lt;/div&gt;&lt;div&gt;&lt;span style=&quot;background-color: initial;&quot;&gt;Digital Health&amp;nbsp; Records&lt;/span&gt;&lt;/div&gt;" style="whiteSpace=wrap;html=1;spacing=0;spacingTop=-2;fillColor=#dae8fc;strokeColor=#6c8ebf;" parent="1" vertex="1">
          <mxGeometry x="480" y="120" width="150" height="40" as="geometry" />
        </mxCell>
        <mxCell id="TPrtVOy8q0tYaUPQvS7f-11" value="&lt;div&gt;MAX Healthcare:&lt;/div&gt;&lt;div&gt;Electronic Health Records&lt;/div&gt;" style="whiteSpace=wrap;html=1;spacing=0;spacingTop=-2;fillColor=#dae8fc;strokeColor=#6c8ebf;" parent="1" vertex="1">
          <mxGeometry x="480" y="180" width="150" height="40" as="geometry" />
        </mxCell>
        <mxCell id="TPrtVOy8q0tYaUPQvS7f-25" style="edgeStyle=orthogonalEdgeStyle;rounded=1;orthogonalLoop=1;jettySize=auto;html=1;exitX=0.5;exitY=1;exitDx=0;exitDy=0;curved=0;entryX=0.5;entryY=0;entryDx=0;entryDy=0;" parent="1" source="TPrtVOy8q0tYaUPQvS7f-14" target="TPrtVOy8q0tYaUPQvS7f-23" edge="1">
          <mxGeometry relative="1" as="geometry">
            <mxPoint x="440" y="230" as="targetPoint" />
          </mxGeometry>
        </mxCell>
        <mxCell id="TPrtVOy8q0tYaUPQvS7f-26" style="edgeStyle=orthogonalEdgeStyle;rounded=1;orthogonalLoop=1;jettySize=auto;html=1;exitX=0.5;exitY=1;exitDx=0;exitDy=0;entryX=0.5;entryY=0;entryDx=0;entryDy=0;curved=0;" parent="1" source="TPrtVOy8q0tYaUPQvS7f-14" target="TPrtVOy8q0tYaUPQvS7f-15" edge="1">
          <mxGeometry relative="1" as="geometry" />
        </mxCell>
        <mxCell id="TPrtVOy8q0tYaUPQvS7f-28" value="" style="edgeStyle=orthogonalEdgeStyle;rounded=1;orthogonalLoop=1;jettySize=auto;html=1;entryX=1;entryY=0.5;entryDx=0;entryDy=0;curved=0;" parent="1" source="TPrtVOy8q0tYaUPQvS7f-14" target="TPrtVOy8q0tYaUPQvS7f-27" edge="1">
          <mxGeometry relative="1" as="geometry" />
        </mxCell>
        <mxCell id="IRrSJivMdV4Zv0pZRBtk-29" style="edgeStyle=elbowEdgeStyle;rounded=1;orthogonalLoop=1;jettySize=auto;html=1;exitX=0.5;exitY=1;exitDx=0;exitDy=0;entryX=0.5;entryY=0;entryDx=0;entryDy=0;elbow=vertical;curved=0;" parent="1" source="TPrtVOy8q0tYaUPQvS7f-14" target="IRrSJivMdV4Zv0pZRBtk-28" edge="1">
          <mxGeometry relative="1" as="geometry" />
        </mxCell>
        <mxCell id="TPrtVOy8q0tYaUPQvS7f-14" value="Source&lt;div&gt;Database&lt;/div&gt;" style="whiteSpace=wrap;html=1;spacing=0;spacingTop=-2;fillColor=#f5f5f5;fontColor=#333333;strokeColor=#666666;" parent="1" vertex="1">
          <mxGeometry x="320" y="153" width="80" height="30" as="geometry" />
        </mxCell>
        <mxCell id="TPrtVOy8q0tYaUPQvS7f-15" value="&lt;div&gt;Tata-1mg&lt;/div&gt;" style="whiteSpace=wrap;html=1;spacing=0;spacingTop=-2;fillColor=#d5e8d4;strokeColor=#82b366;" parent="1" vertex="1">
          <mxGeometry x="333" y="245" width="55" height="20" as="geometry" />
        </mxCell>
        <mxCell id="TPrtVOy8q0tYaUPQvS7f-23" value="&lt;div&gt;Apollo&amp;nbsp;&lt;/div&gt;&lt;div&gt;Pharmacy&lt;/div&gt;" style="whiteSpace=wrap;html=1;spacing=0;spacingTop=-2;fillColor=#d5e8d4;strokeColor=#82b366;" parent="1" vertex="1">
          <mxGeometry x="394.5" y="245" width="65.5" height="30" as="geometry" />
        </mxCell>
        <mxCell id="IRrSJivMdV4Zv0pZRBtk-30" style="edgeStyle=orthogonalEdgeStyle;rounded=0;orthogonalLoop=1;jettySize=auto;html=1;exitX=0.5;exitY=1;exitDx=0;exitDy=0;entryX=0.5;entryY=0;entryDx=0;entryDy=0;" parent="1" source="TPrtVOy8q0tYaUPQvS7f-27" target="TPrtVOy8q0tYaUPQvS7f-37" edge="1">
          <mxGeometry relative="1" as="geometry" />
        </mxCell>
        <mxCell id="TPrtVOy8q0tYaUPQvS7f-27" value="International Medical Vocabularies and Ontologies" style="whiteSpace=wrap;html=1;spacing=0;spacingTop=-2;fillColor=#ffe6cc;strokeColor=#d79b00;" parent="1" vertex="1">
          <mxGeometry x="85" y="144.5" width="120" height="47" as="geometry" />
        </mxCell>
        <mxCell id="TPrtVOy8q0tYaUPQvS7f-29" value="" style="shape=curlyBracket;whiteSpace=wrap;html=1;rounded=1;flipH=1;labelPosition=right;verticalLabelPosition=middle;align=left;verticalAlign=middle;" parent="1" vertex="1">
          <mxGeometry x="640" y="110" width="20" height="120" as="geometry" />
        </mxCell>
        <mxCell id="TPrtVOy8q0tYaUPQvS7f-30" value="&lt;span style=&quot;background-color: initial;&quot;&gt;Provider of Patient Centric Data.&amp;nbsp;&lt;/span&gt;&lt;div&gt;&lt;span style=&quot;background-color: initial;&quot;&gt;Phenotype Information:&lt;/span&gt;&lt;/div&gt;&lt;div&gt;&lt;span style=&quot;background-color: initial;&quot;&gt;- Allergies&lt;/span&gt;&lt;/div&gt;&lt;div&gt;&lt;span style=&quot;background-color: initial;&quot;&gt;- Symptoms&lt;/span&gt;&lt;/div&gt;&lt;div&gt;&lt;span style=&quot;background-color: initial;&quot;&gt;- Past History&lt;/span&gt;&lt;/div&gt;&lt;div&gt;&lt;span style=&quot;background-color: initial;&quot;&gt;- ...&lt;/span&gt;&lt;/div&gt;" style="whiteSpace=wrap;html=1;spacing=0;spacingTop=0;align=left;spacingLeft=3;fillColor=#dae8fc;strokeColor=#6c8ebf;" parent="1" vertex="1">
          <mxGeometry x="670" y="124" width="190" height="90" as="geometry" />
        </mxCell>
        <mxCell id="TPrtVOy8q0tYaUPQvS7f-31" value="" style="shape=curlyBracket;whiteSpace=wrap;html=1;rounded=1;flipH=1;labelPosition=right;verticalLabelPosition=middle;align=left;verticalAlign=middle;rotation=90;" parent="1" vertex="1">
          <mxGeometry x="354.25" y="184.25" width="20" height="207.5" as="geometry" />
        </mxCell>
        <mxCell id="TPrtVOy8q0tYaUPQvS7f-32" value="&lt;div&gt;Indian Drug &lt;b&gt;Knowledgebase&lt;/b&gt;&lt;/div&gt;" style="whiteSpace=wrap;html=1;spacing=0;spacingTop=-2;fillColor=#d5e8d4;strokeColor=#82b366;" parent="1" vertex="1">
          <mxGeometry x="278.56" y="301" width="170.88" height="20" as="geometry" />
        </mxCell>
        <mxCell id="TPrtVOy8q0tYaUPQvS7f-37" value="Standards: SNOMED, etc.&lt;div&gt;Vocabulary: UMLS, etc.&lt;br&gt;&lt;div&gt;Terminology:&amp;nbsp;&lt;span style=&quot;background-color: initial;&quot;&gt;ICD9/10, etc.&lt;/span&gt;&lt;/div&gt;&lt;/div&gt;&lt;div&gt;&lt;span style=&quot;background-color: initial;&quot;&gt;Ontologies:&amp;nbsp;&lt;/span&gt;&lt;span style=&quot;background-color: initial;&quot;&gt;HPO, FoodON, etc.&lt;/span&gt;&lt;/div&gt;" style="whiteSpace=wrap;html=1;spacing=0;spacingTop=0;align=left;spacingLeft=3;fillColor=#ffe6cc;strokeColor=#d79b00;" parent="1" vertex="1">
          <mxGeometry x="50" y="215" width="190" height="60" as="geometry" />
        </mxCell>
        <mxCell id="TPrtVOy8q0tYaUPQvS7f-39" value="&lt;div&gt;Design and Development&amp;nbsp;&lt;/div&gt;&lt;div&gt;of Indian-centric&amp;nbsp;&lt;/div&gt;&lt;div&gt;&lt;span style=&quot;background-color: initial;&quot;&gt;interoperable&amp;nbsp;&lt;/span&gt;&lt;span style=&quot;background-color: initial;&quot;&gt;clinical terminologies using open source LLMs and knowldege graph&lt;/span&gt;&lt;/div&gt;" style="whiteSpace=wrap;html=1;spacing=2;spacingTop=0;align=center;spacingLeft=0;rounded=1;" parent="1" vertex="1">
          <mxGeometry x="60" y="369" width="150" height="91" as="geometry" />
        </mxCell>
        <mxCell id="IRrSJivMdV4Zv0pZRBtk-4" value="mHealth" style="whiteSpace=wrap;html=1;spacing=0;spacingTop=-3;align=center;verticalAlign=top;fillColor=#e1d5e7;rounded=1;arcSize=8;strokeColor=#9673a6;" parent="1" vertex="1">
          <mxGeometry x="230" y="350" width="170" height="185" as="geometry" />
        </mxCell>
        <mxCell id="IRrSJivMdV4Zv0pZRBtk-5" value="Conversational AI:&lt;div&gt;Clinical Decision Support System&lt;/div&gt;" style="whiteSpace=wrap;html=1;spacing=2;spacingTop=0;align=center;spacingLeft=0;rounded=1;" parent="1" vertex="1">
          <mxGeometry x="240" y="369" width="150" height="47" as="geometry" />
        </mxCell>
        <mxCell id="IRrSJivMdV4Zv0pZRBtk-8" value="&lt;div style=&quot;&quot;&gt;&lt;span style=&quot;font-size: 11px;&quot;&gt;Privacy Preserved Learning for Visual QA over Medical Documents &amp;amp;&amp;nbsp;&lt;/span&gt;&lt;span style=&quot;font-size: 11px; background-color: initial;&quot;&gt;Questionnaire&lt;/span&gt;&lt;/div&gt;" style="whiteSpace=wrap;html=1;align=center;spacing=2;spacingTop=-2;spacingLeft=0;rounded=1;" parent="1" vertex="1">
          <mxGeometry x="240" y="419.5" width="150" height="51" as="geometry" />
        </mxCell>
        <mxCell id="IRrSJivMdV4Zv0pZRBtk-9" value="Reliablility" style="whiteSpace=wrap;html=1;spacing=0;spacingTop=-3;align=center;verticalAlign=top;fillColor=#bac8d3;rounded=1;arcSize=8;strokeColor=#23445d;" parent="1" vertex="1">
          <mxGeometry x="660" y="350" width="210" height="210" as="geometry" />
        </mxCell>
        <mxCell id="IRrSJivMdV4Zv0pZRBtk-10" value="Quality Control (QC) Metrics" style="whiteSpace=wrap;html=1;spacing=2;spacingTop=0;align=center;spacingLeft=0;rounded=1;" parent="1" vertex="1">
          <mxGeometry x="670" y="369" width="190" height="31" as="geometry" />
        </mxCell>
        <mxCell id="IRrSJivMdV4Zv0pZRBtk-11" value="&lt;div style=&quot;&quot;&gt;&lt;span style=&quot;font-size: 11px;&quot;&gt;Parameter Effecient Large Language Models for Resource Constraint Environment&lt;/span&gt;&lt;/div&gt;" style="whiteSpace=wrap;html=1;align=center;spacing=2;spacingTop=-2;spacingLeft=0;rounded=1;" parent="1" vertex="1">
          <mxGeometry x="670" y="404" width="190" height="46" as="geometry" />
        </mxCell>
        <mxCell id="IRrSJivMdV4Zv0pZRBtk-14" value="Dynamic Reference for auditing" style="whiteSpace=wrap;html=1;spacing=2;spacingTop=0;align=center;spacingLeft=0;rounded=1;" parent="1" vertex="1">
          <mxGeometry x="670" y="454" width="190" height="31" as="geometry" />
        </mxCell>
        <mxCell id="IRrSJivMdV4Zv0pZRBtk-15" value="Develop collaborative platforms for knowledge curators&lt;div&gt;(Domain Experts and Annotators)&lt;/div&gt;" style="whiteSpace=wrap;html=1;spacing=2;spacingTop=0;align=center;spacingLeft=0;rounded=1;" parent="1" vertex="1">
          <mxGeometry x="670" y="490" width="190" height="60" as="geometry" />
        </mxCell>
        <mxCell id="IRrSJivMdV4Zv0pZRBtk-17" value="&lt;font style=&quot;font-size: 28px;&quot;&gt;Data to Knowledge&lt;/font&gt;" style="whiteSpace=wrap;html=1;fontStyle=0;align=center;spacing=0;spacingTop=-4;" parent="1" vertex="1">
          <mxGeometry x="610" y="290" width="270" height="40" as="geometry" />
        </mxCell>
        <mxCell id="IRrSJivMdV4Zv0pZRBtk-20" value="&lt;font style=&quot;font-size: 20px;&quot;&gt;Patient Side&lt;/font&gt;" style="whiteSpace=wrap;html=1;fontStyle=0;align=center;spacing=0;spacingTop=-2;" parent="1" vertex="1">
          <mxGeometry x="290.5" y="546" width="119.5" height="24" as="geometry" />
        </mxCell>
        <mxCell id="IRrSJivMdV4Zv0pZRBtk-21" value="System Interface" style="whiteSpace=wrap;html=1;spacing=0;spacingTop=-3;align=center;verticalAlign=top;fillColor=#f8cecc;rounded=1;arcSize=6;strokeColor=#b85450;" parent="1" vertex="1">
          <mxGeometry x="440" y="350" width="210" height="190" as="geometry" />
        </mxCell>
        <mxCell id="IRrSJivMdV4Zv0pZRBtk-22" value="Developed Cross Platform Desktop Application for Physicians" style="whiteSpace=wrap;html=1;spacing=4;spacingTop=-1;align=center;spacingLeft=0;rounded=1;" parent="1" vertex="1">
          <mxGeometry x="450" y="369" width="190" height="31" as="geometry" />
        </mxCell>
        <mxCell id="IRrSJivMdV4Zv0pZRBtk-23" value="&lt;div style=&quot;&quot;&gt;&lt;span style=&quot;font-size: 11px;&quot;&gt;Secure API to communicate with knowledgebase (local or remote)&lt;/span&gt;&lt;/div&gt;" style="whiteSpace=wrap;html=1;align=center;spacing=2;spacingTop=-2;spacingLeft=0;rounded=1;" parent="1" vertex="1">
          <mxGeometry x="450" y="404" width="190" height="36" as="geometry" />
        </mxCell>
        <mxCell id="IRrSJivMdV4Zv0pZRBtk-24" value="Develop Physician centric interfaces for temporal clinical data" style="whiteSpace=wrap;html=1;spacing=3;spacingTop=0;align=center;spacingLeft=0;rounded=1;" parent="1" vertex="1">
          <mxGeometry x="450" y="444" width="190" height="35" as="geometry" />
        </mxCell>
        <mxCell id="IRrSJivMdV4Zv0pZRBtk-25" value="Designing and Developing temporal representations for heterogeneous clinical data" style="whiteSpace=wrap;html=1;spacing=2;spacingTop=0;align=center;spacingLeft=0;rounded=1;" parent="1" vertex="1">
          <mxGeometry x="450" y="484" width="190" height="50" as="geometry" />
        </mxCell>
        <mxCell id="IRrSJivMdV4Zv0pZRBtk-27" value="&lt;font style=&quot;font-size: 20px;&quot;&gt;Physician Side&lt;/font&gt;" style="whiteSpace=wrap;html=1;fontStyle=0;align=center;spacing=0;spacingTop=-2;" parent="1" vertex="1">
          <mxGeometry x="430" y="545" width="140" height="25" as="geometry" />
        </mxCell>
        <mxCell id="IRrSJivMdV4Zv0pZRBtk-28" value="&lt;div&gt;NRCeS&lt;/div&gt;" style="whiteSpace=wrap;html=1;spacing=0;spacingTop=-2;fillColor=#d5e8d4;strokeColor=#82b366;" parent="1" vertex="1">
          <mxGeometry x="271" y="245" width="55" height="20" as="geometry" />
        </mxCell>
        <mxCell id="IRrSJivMdV4Zv0pZRBtk-2" value="&lt;div style=&quot;&quot;&gt;&lt;span style=&quot;font-size: 11px; background-color: initial;&quot;&gt;Linguistic Version&lt;/span&gt;&lt;/div&gt;&lt;div style=&quot;text-align: left;&quot;&gt;&lt;span style=&quot;background-color: initial; font-size: 11px;&quot;&gt;1. Language (Community)&lt;/span&gt;&lt;/div&gt;&lt;div style=&quot;text-align: left;&quot;&gt;&lt;span style=&quot;font-size: 11px; background-color: initial;&quot;&gt;2. Dialects (Geographic)&lt;/span&gt;&lt;/div&gt;" style="whiteSpace=wrap;html=1;align=center;spacing=0;spacingTop=-2;spacingLeft=0;rounded=1;" parent="1" vertex="1">
          <mxGeometry x="240" y="475" width="150" height="50" as="geometry" />
        </mxCell>
        <mxCell id="IRrSJivMdV4Zv0pZRBtk-32" value="&lt;div style=&quot;&quot;&gt;&lt;span style=&quot;font-size: 11px;&quot;&gt;Design and Development of Privacy Preserved Learning for Visual Q/A over Medical Documents &amp;amp;&amp;nbsp;&lt;/span&gt;&lt;span style=&quot;font-size: 11px; background-color: initial;&quot;&gt;Questionnaire&lt;/span&gt;&lt;/div&gt;" style="whiteSpace=wrap;html=1;align=center;spacing=2;spacingTop=-2;spacingLeft=0;rounded=1;" parent="1" vertex="1">
          <mxGeometry x="60" y="466.5" width="150" height="63.5" as="geometry" />
        </mxCell>
        <mxCell id="IRrSJivMdV4Zv0pZRBtk-7" value="&lt;div style=&quot;&quot;&gt;&lt;span style=&quot;font-size: 11px;&quot;&gt;Indian Traditional Medicine&lt;/span&gt;&lt;/div&gt;" style="whiteSpace=wrap;html=1;align=center;spacing=0;spacingTop=0;spacingLeft=0;rounded=0;fillColor=#d0cee2;strokeColor=#56517e;fontStyle=1" parent="1" vertex="1">
          <mxGeometry x="480" y="245" width="150" height="20" as="geometry" />
        </mxCell>
        <mxCell id="IlpR-O6ZEO6z92O7g1MQ-1" value="Indian Centric CDM&lt;div&gt;Interoperable common data model for India&lt;/div&gt;&lt;div&gt;&lt;br&gt;&lt;/div&gt;&lt;div&gt;Direct Benifit:&lt;/div&gt;&lt;div&gt;- Physician&lt;/div&gt;&lt;div&gt;&lt;br&gt;&lt;/div&gt;&lt;div&gt;&lt;br&gt;&lt;/div&gt;" style="text;html=1;align=left;verticalAlign=middle;resizable=0;points=[];autosize=1;strokeColor=none;fillColor=none;" vertex="1" parent="1">
          <mxGeometry x="395" y="-242" width="250" height="110" as="geometry" />
        </mxCell>
        <mxCell id="IlpR-O6ZEO6z92O7g1MQ-2" value="&lt;span style=&quot;text-wrap: nowrap;&quot;&gt;D&lt;/span&gt;&lt;sup style=&quot;text-wrap: nowrap;&quot;&gt;2&lt;/sup&gt;&lt;span style=&quot;text-wrap: nowrap;&quot;&gt;CODE:&amp;nbsp;&lt;/span&gt;&lt;b style=&quot;text-wrap: nowrap;&quot;&gt;&lt;u&gt;D&lt;/u&gt;&lt;/b&gt;&lt;span style=&quot;text-wrap: nowrap;&quot;&gt;esign &amp;amp;&amp;nbsp;&lt;/span&gt;&lt;b style=&quot;text-wrap: nowrap;&quot;&gt;&lt;u&gt;D&lt;/u&gt;&lt;/b&gt;&lt;span style=&quot;text-wrap: nowrap;&quot;&gt;evelopment of ...&amp;nbsp; for Indian Healthcare Provider&lt;/span&gt;" style="whiteSpace=wrap;html=1;spacing=0;spacingTop=-2;" vertex="1" parent="1">
          <mxGeometry x="230" y="-90" width="440" height="35" as="geometry" />
        </mxCell>
      </root>
    </mxGraphModel>
  </diagram>
</mxfile>
